<?xml version="1.0" standalone="no"?>
<!DOCTYPE svg PUBLIC "-//W3C//DTD SVG 20010904//EN"
 "http://www.w3.org/TR/2001/REC-SVG-20010904/DTD/svg10.dtd">
<svg version="1.0" xmlns="http://www.w3.org/2000/svg"
 width="512.000000pt" height="512.000000pt" viewBox="0 0 512.000000 512.000000"
 preserveAspectRatio="xMidYMid meet">
<metadata>
Created by potrace 1.14, written by Peter Selinger 2001-2017
</metadata>
<g transform="translate(0.000000,512.000000) scale(0.100000,-0.100000)"
fill="#000000" stroke="none">
<path d="M2518 5108 c-8 -7 -35 -40 -59 -73 -24 -33 -46 -62 -49 -65 -3 -3
-25 -32 -49 -65 -190 -257 -436 -496 -666 -647 -199 -131 -495 -246 -735 -283
-25 -4 -56 -9 -70 -11 -80 -14 -111 -55 -90 -121 42 -128 174 -211 395 -248
34 -5 258 -14 378 -15 l37 0 0 -135 0 -134 -142 -70 c-217 -106 -419 -171
-690 -221 -116 -21 -154 -27 -194 -29 -29 -1 -61 -32 -69 -64 -10 -37 26 -106
80 -156 83 -77 208 -123 400 -147 28 -3 154 -7 280 -9 127 -2 232 -4 235 -4 3
-1 5 -71 5 -156 l0 -154 -105 -50 c-209 -99 -443 -176 -655 -217 -22 -4 -44
-8 -50 -10 -12 -3 -143 -25 -170 -28 -11 -2 -45 -6 -75 -10 -103 -14 -115 -17
-137 -38 -51 -48 -6 -148 98 -220 55 -38 204 -91 289 -103 25 -4 56 -8 70 -10
60 -10 219 -17 388 -17 125 -1 182 -4 183 -12 5 -94 2 -759 -5 -763 -5 -3 -58
-7 -118 -7 -153 -3 -152 -2 -153 -186 l0 -140 -137 0 c-147 0 -179 -8 -197
-47 -7 -15 -11 -93 -11 -206 0 -164 2 -184 20 -207 l19 -25 1790 0 c1704 0
1791 1 1808 18 16 15 18 41 21 209 3 205 0 227 -45 247 -14 6 -81 11 -158 11
-74 0 -135 3 -136 8 0 4 -1 67 -2 140 -2 131 -2 134 -29 157 -23 20 -37 22
-134 24 -59 0 -109 3 -112 6 -4 3 -6 652 -3 752 1 22 3 22 194 23 381 1 536
24 687 101 135 68 206 186 150 247 -12 12 -25 23 -30 23 -6 1 -13 2 -17 3 -5
1 -39 6 -77 10 -38 4 -81 10 -95 12 -14 3 -53 9 -86 15 -250 42 -482 108 -688
196 -71 31 -145 65 -165 77 l-37 21 2 140 c0 77 1 147 2 155 1 13 29 15 189
15 338 1 503 25 632 90 118 60 199 173 169 238 -14 31 -41 45 -99 52 -95 13
-119 17 -236 41 -238 48 -404 104 -611 205 l-143 70 0 134 0 135 78 0 c302 2
432 21 557 80 74 35 130 89 161 155 28 60 29 68 7 106 -14 23 -28 30 -72 39
-177 34 -309 66 -408 100 -433 149 -765 423 -1151 949 -35 47 -73 91 -85 98
-29 16 -59 16 -79 1z m187 -391 c201 -251 406 -445 625 -591 174 -116 431
-225 650 -276 133 -31 130 -29 89 -49 -46 -23 -115 -40 -193 -49 -82 -9 -2531
-9 -2626 0 -111 12 -237 49 -225 68 2 4 24 11 47 15 73 13 81 15 153 36 473
138 830 391 1192 848 42 53 92 115 111 139 l34 43 26 -36 c15 -20 67 -87 117
-148z m-738 -1253 l0 -114 -99 0 -98 0 0 115 0 114 73 3 c39 2 84 1 98 0 l27
-4 -1 -114z m1024 109 c0 -7 1 -59 1 -115 l1 -103 -428 -3 c-252 -1 -431 2
-434 7 -3 5 -6 56 -6 113 l1 103 44 5 c25 3 219 5 432 5 303 0 388 -3 389 -12z
m359 -108 l0 -115 -98 0 -99 0 -1 115 0 115 99 0 99 0 0 -115z m85 -289 c42
-29 245 -126 355 -169 143 -56 381 -121 520 -142 25 -4 47 -8 48 -10 7 -7 -54
-32 -103 -44 -82 -19 -96 -21 -190 -28 -117 -9 -2928 -9 -3022 0 -139 13 -311
58 -273 71 8 2 42 10 75 16 288 55 605 167 810 288 l50 30 855 1 c713 1 859
-1 875 -13z m-1567 -701 l-3 -140 -80 -1 c-121 -3 -112 -14 -112 141 0 154
-12 140 120 140 l78 0 -3 -140z m1217 0 l0 -140 -527 -1 -528 0 0 137 c0 121
2 138 17 141 9 2 246 3 527 3 l511 -1 0 -139z m354 136 c6 -1 9 -249 3 -272
-1 -3 -45 -5 -97 -5 l-95 0 0 140 0 141 90 -1 c50 -1 94 -2 99 -3z m158 -485
c240 -120 516 -209 835 -267 71 -13 125 -26 120 -30 -24 -22 -165 -49 -337
-64 -94 -8 -3184 -9 -3305 0 -52 3 -107 8 -122 11 -16 2 -43 6 -60 9 -65 10
-133 29 -153 42 -14 9 -15 13 -5 14 38 2 136 20 275 50 212 45 457 129 649
222 l129 62 941 -1 941 -1 92 -47z m-1889 -918 l-3 -392 -77 1 c-43 1 -87 2
-98 2 -19 1 -19 10 -20 385 0 297 3 385 13 389 6 2 51 5 100 5 l87 1 -2 -391z
m1542 1 c0 -304 -3 -389 -12 -390 -17 -1 -271 -1 -279 0 -3 1 -5 63 -5 139 2
153 -4 194 -38 268 -104 227 -429 291 -621 122 -100 -87 -127 -166 -129 -376
l-1 -156 -148 -1 -147 0 0 391 0 391 690 0 690 0 0 -388z m359 9 c0 -209 -2
-385 -5 -391 -3 -10 -130 -15 -186 -8 -5 1 -8 176 -8 390 l0 389 100 0 100 0
-1 -380z m-946 43 c54 -24 93 -62 113 -109 23 -53 26 -321 4 -331 -12 -5 -370
-7 -440 -2 -13 1 -15 22 -14 129 0 70 4 145 8 166 25 135 193 210 329 147z
m1222 -688 l1 -83 -1328 0 -1327 0 1 78 c1 42 5 80 10 83 5 3 601 5 1326 5
l1317 -1 0 -82z m345 -328 l0 -85 -1670 0 -1670 0 0 85 0 85 1670 0 1670 0 0
-85z"/>
</g>
</svg>
